<svg width="21" height="21" viewBox="0 0 21 21" fill="none" xmlns="http://www.w3.org/2000/svg">
<path d="M18.19 2H16V0.5C16 0.367392 15.9473 0.240215 15.8536 0.146447C15.7598 0.0526785 15.6326 0 15.5 0C15.3674 0 15.2402 0.0526785 15.1464 0.146447C15.0527 0.240215 15 0.367392 15 0.5V2H6V0.5C6 0.367392 5.94732 0.240215 5.85355 0.146447C5.75979 0.0526785 5.63261 0 5.5 0C5.36739 0 5.24021 0.0526785 5.14645 0.146447C5.05268 0.240215 5 0.367392 5 0.5V2H2.81C2.06474 2 1.35001 2.29605 0.82303 2.82303C0.296053 3.35001 0 4.06474 0 4.81V18.19C0 18.9353 0.296053 19.65 0.82303 20.177C1.35001 20.7039 2.06474 21 2.81 21H18.19C18.9353 21 19.65 20.7039 20.177 20.177C20.7039 19.65 21 18.9353 21 18.19V4.81C21 4.06474 20.7039 3.35001 20.177 2.82303C19.65 2.29605 18.9353 2 18.19 2ZM2.81 3H18.19C18.67 3 19.1304 3.1907 19.4699 3.53014C19.8093 3.86958 20 4.32996 20 4.81V6H1V4.81C1 4.32996 1.1907 3.86958 1.53014 3.53014C1.86958 3.1907 2.32996 3 2.81 3ZM18.19 20H2.81C2.32996 20 1.86958 19.8093 1.53014 19.4699C1.1907 19.1304 1 18.67 1 18.19V7H20V18.19C20 18.67 19.8093 19.1304 19.4699 19.4699C19.1304 19.8093 18.67 20 18.19 20Z" fill="#ACCFE2"/>
</svg>
