<svg width="24" height="24" viewBox="0 0 24 24" fill="none" xmlns="http://www.w3.org/2000/svg">
<g id="Frame">
<g id="Group">
<path id="Vector" d="M22.6676 6.41437L12.1676 1.16437C12.1156 1.13836 12.0582 1.12482 12 1.12482C11.9418 1.12482 11.8844 1.13836 11.8324 1.16437L1.33238 6.41437C1.27004 6.44552 1.21762 6.49342 1.18099 6.5527C1.14436 6.61199 1.12497 6.68031 1.125 6.74999V17.25C1.12462 17.32 1.14384 17.3887 1.18049 17.4484C1.21714 17.508 1.26975 17.5562 1.33238 17.5875L11.8324 22.8375C11.8844 22.8635 11.9418 22.877 12 22.877C12.0582 22.877 12.1156 22.8635 12.1676 22.8375L22.6676 17.5875C22.7302 17.5562 22.7829 17.508 22.8195 17.4484C22.8562 17.3887 22.8754 17.32 22.875 17.25V6.74999C22.875 6.68031 22.8556 6.61199 22.819 6.5527C22.7824 6.49342 22.73 6.44552 22.6676 6.41437ZM12 11.5807L9.06863 10.1149L18.4384 5.13749L21.6634 6.74999L12 11.5807ZM6.06863 8.61487L15.4384 3.63749L17.6134 4.72499L8.24475 9.70312L6.06863 8.61487ZM5.625 9.23174L7.875 10.3567V13.3447L7.01513 12.4849C6.94482 12.4145 6.84945 12.375 6.75 12.375H5.625V9.23174ZM12 1.91924L14.6145 3.22499L5.24475 8.20312L2.3385 6.74999L12 1.91924ZM1.875 7.35674L4.875 8.85674V12.75C4.875 12.8494 4.91451 12.9448 4.98484 13.0152C5.05516 13.0855 5.15055 13.125 5.25 13.125H6.59475L7.98488 14.5151C8.03732 14.5675 8.10413 14.6032 8.17686 14.6177C8.2496 14.6322 8.32499 14.6247 8.3935 14.5964C8.46201 14.568 8.52057 14.5199 8.56178 14.4583C8.60298 14.3966 8.62499 14.3241 8.625 14.25V10.7317L11.625 12.2317V21.8932L1.875 17.0182V7.35674ZM12.375 21.8932V12.2317L22.125 7.35674V17.0182L12.375 21.8932Z" fill="#284758"/>
</g>
</g>
</svg>
