<svg width="11" height="11" viewBox="0 0 11 11" fill="none" xmlns="http://www.w3.org/2000/svg">
<path d="M10.1042 0.895215C10.5444 1.33545 10.5444 2.04521 10.1042 2.48545L7.08545 5.49971L10.1042 8.51846C10.5444 8.95869 10.5444 9.66846 10.1042 10.1087C9.66397 10.5489 8.9542 10.5489 8.51397 10.1087L5.49971 7.08994L2.48096 10.1087C2.04072 10.5489 1.33096 10.5489 0.890723 10.1087C0.450488 9.66846 0.450488 8.95869 0.890723 8.51846L3.90947 5.49971L0.890723 2.48096C0.450488 2.04072 0.450488 1.33096 0.890723 0.890723C1.33096 0.450488 2.04072 0.450488 2.48096 0.890723L5.49971 3.90947L8.51846 0.890723C8.9542 0.45498 9.66846 0.454981 10.1042 0.895215Z" fill="#E74848"/>
</svg>
