<svg width="13" height="13" viewBox="0 0 13 13" fill="none" xmlns="http://www.w3.org/2000/svg">
<g id="Frame">
<g id="Group">
<path id="Vector" d="M2.69211 4.62271C2.69002 4.51025 2.72294 4.39992 2.78632 4.30699C2.84969 4.21406 2.94037 4.14313 3.04583 4.10401C3.15128 4.06488 3.26629 4.0595 3.37494 4.08861C3.48359 4.11772 3.5805 4.17988 3.65227 4.26649L6.48975 7.58097L9.32723 4.26444C9.3714 4.20385 9.42765 4.15307 9.49242 4.11531C9.5572 4.07756 9.62911 4.05363 9.7036 4.04506C9.77808 4.03649 9.85354 4.04345 9.9252 4.0655C9.99687 4.08756 10.0632 4.12423 10.12 4.1732C10.1767 4.22217 10.2228 4.28238 10.2551 4.35003C10.2874 4.41768 10.3054 4.49129 10.3079 4.56623C10.3103 4.64117 10.2972 4.71581 10.2694 4.78543C10.2415 4.85505 10.1996 4.91815 10.1461 4.97074L6.90534 8.76223C6.85441 8.82186 6.79115 8.86974 6.71994 8.90257C6.64872 8.9354 6.57124 8.9524 6.49282 8.9524C6.4144 8.9524 6.33691 8.9354 6.2657 8.90257C6.19448 8.86974 6.13123 8.82186 6.0803 8.76223L2.82928 4.97074C2.74374 4.87466 2.69512 4.75131 2.69211 4.62271Z" fill="#A3A3A3"/>
</g>
</g>
</svg>
