<svg width="11" height="12" viewBox="0 0 11 12" fill="none" xmlns="http://www.w3.org/2000/svg">
<g id="Frame">
<g id="Group">
<path id="Vector" d="M0.916748 3.00659H10.0834V9.22432C10.0834 9.35116 10.0351 9.47282 9.94917 9.56252C9.86322 9.65221 9.74664 9.7026 9.62508 9.7026H1.37508C1.25352 9.7026 1.13694 9.65221 1.05099 9.56252C0.965037 9.47282 0.916748 9.35116 0.916748 9.22432V3.00659ZM2.29175 7.78946C2.29175 7.91631 2.34004 8.03796 2.42599 8.12766C2.51195 8.21735 2.62852 8.26774 2.75008 8.26774H4.58341C4.70497 8.26774 4.82155 8.21735 4.90751 8.12766C4.99346 8.03796 5.04175 7.91631 5.04175 7.78946C5.04175 7.66261 4.99346 7.54095 4.90751 7.45126C4.82155 7.36156 4.70497 7.31117 4.58341 7.31117H2.75008C2.62852 7.31117 2.51195 7.36156 2.42599 7.45126C2.34004 7.54095 2.29175 7.66261 2.29175 7.78946Z" fill="black"/>
<path id="Vector_2" d="M9.29325 1.358L10.0834 3.00665H0.916748L1.70691 1.358C1.78391 1.20016 1.93837 1.09351 2.11666 1.09351H8.8835C8.96807 1.09355 9.05099 1.11801 9.12306 1.16419C9.19514 1.21036 9.25356 1.27645 9.29187 1.35513L9.29325 1.358Z" fill="#9A9A9A"/>
</g>
</g>
</svg>
