<svg width="20" height="20" viewBox="0 0 20 20" fill="none" xmlns="http://www.w3.org/2000/svg">
<path d="M15.7619 0.561914C15.5614 0.215313 15.1882 0 14.7881 0H11.1061C10.83 0 10.6061 0.223858 10.6061 0.5V4.44676C10.6061 4.7229 10.83 4.94676 11.1061 4.94676H17.4312C17.8163 4.94676 18.0568 4.52976 17.864 4.19642L15.7619 0.561914ZM9.43379 0.500003C9.43379 0.223859 9.20993 0 8.93379 0H5.21231C4.81137 0 4.4382 0.215703 4.23774 0.563086L2.1431 4.19707C1.95097 4.5304 2.19155 4.94676 2.57629 4.94676H8.93376C9.2099 4.94676 9.43375 4.7229 9.43375 4.44676L9.43379 0.500003ZM1.79129 6.11906C1.51515 6.11906 1.29129 6.34292 1.29129 6.61906V18.6218C1.29129 19.3818 1.90988 20 2.66992 20H17.3301C18.0901 20 18.7087 19.3818 18.7087 18.6218V6.61906C18.7087 6.34292 18.4849 6.11906 18.2087 6.11906H1.79129ZM12.6607 11.3769L9.62914 14.4085C9.51465 14.523 9.36457 14.5804 9.21453 14.5804C9.06449 14.5804 8.91441 14.523 8.80031 14.4085L7.3791 12.9876C7.15051 12.759 7.15051 12.3878 7.3791 12.1588C7.60809 11.9298 7.97934 11.9298 8.20832 12.1588L9.21457 13.1654L11.832 10.548C12.0609 10.3191 12.4322 10.3191 12.6608 10.548C12.8898 10.777 12.8898 11.1479 12.6607 11.3769Z" fill="white"/>
</svg>
