<svg width="22" height="22" viewBox="0 0 22 22" fill="none" xmlns="http://www.w3.org/2000/svg">
<path d="M21.6676 5.41437L11.1676 0.164367C11.1156 0.138357 11.0582 0.124817 11 0.124817C10.9418 0.124817 10.8844 0.138357 10.8324 0.164367L0.332377 5.41437C0.270039 5.44552 0.217615 5.49342 0.180985 5.5527C0.144355 5.61199 0.124969 5.68031 0.125002 5.74999V16.25C0.12462 16.32 0.143841 16.3887 0.18049 16.4484C0.21714 16.508 0.269753 16.5562 0.332377 16.5875L10.8324 21.8375C10.8844 21.8635 10.9418 21.877 11 21.877C11.0582 21.877 11.1156 21.8635 11.1676 21.8375L21.6676 16.5875C21.7302 16.5562 21.7829 16.508 21.8195 16.4484C21.8562 16.3887 21.8754 16.32 21.875 16.25V5.74999C21.875 5.68031 21.8556 5.61199 21.819 5.5527C21.7824 5.49342 21.73 5.44552 21.6676 5.41437ZM11 10.5807L8.06863 9.11487L17.4384 4.13749L20.6634 5.74999L11 10.5807ZM5.06863 7.61487L14.4384 2.63749L16.6134 3.72499L7.24475 8.70312L5.06863 7.61487ZM4.625 8.23174L6.875 9.35674V12.3447L6.01513 11.4849C5.94482 11.4145 5.84945 11.375 5.75 11.375H4.625V8.23174ZM11 0.919242L13.6145 2.22499L4.24475 7.20312L1.3385 5.74999L11 0.919242ZM0.875002 6.35674L3.875 7.85674V11.75C3.875 11.8494 3.91451 11.9448 3.98484 12.0152C4.05516 12.0855 4.15055 12.125 4.25 12.125H5.59475L6.98488 13.5151C7.03732 13.5675 7.10413 13.6032 7.17686 13.6177C7.2496 13.6322 7.32499 13.6247 7.3935 13.5964C7.46201 13.568 7.52057 13.5199 7.56178 13.4583C7.60298 13.3966 7.62499 13.3241 7.625 13.25V9.73174L10.625 11.2317V20.8932L0.875002 16.0182V6.35674ZM11.375 20.8932V11.2317L21.125 6.35674V16.0182L11.375 20.8932Z" fill="#284758"/>
</svg>
