<svg width="14" height="18" viewBox="0 0 14 18" fill="none" xmlns="http://www.w3.org/2000/svg">
<path d="M0.144531 0.527344V14.3086C0.144531 14.6001 0.380395 14.8359 0.671875 14.8359H10.1641C10.4555 14.8359 10.6914 14.6001 10.6914 14.3086V0.527344C10.6914 0.235863 10.4555 0 10.1641 0H0.671875C0.380395 0 0.144531 0.235863 0.144531 0.527344ZM8.58203 12.1641H6.47266C6.18118 12.1641 5.94531 11.9282 5.94531 11.6367C5.94531 11.3452 6.18118 11.1094 6.47266 11.1094H8.58203C8.87351 11.1094 9.10938 11.3452 9.10938 11.6367C9.10938 11.9282 8.87351 12.1641 8.58203 12.1641ZM2.25391 2.67188H5.41797C5.70945 2.67188 5.94531 2.90774 5.94531 3.19922C5.94531 3.4907 5.70945 3.72656 5.41797 3.72656H2.25391C1.96243 3.72656 1.72656 3.4907 1.72656 3.19922C1.72656 2.90774 1.96243 2.67188 2.25391 2.67188ZM2.25391 4.78125H8.58203C8.87351 4.78125 9.10938 5.01711 9.10938 5.30859C9.10938 5.60007 8.87351 5.83594 8.58203 5.83594H2.25391C1.96243 5.83594 1.72656 5.60007 1.72656 5.30859C1.72656 5.01711 1.96243 4.78125 2.25391 4.78125ZM2.25391 6.89062H8.58203C8.87351 6.89062 9.10938 7.12649 9.10938 7.41797C9.10938 7.70945 8.87351 7.94531 8.58203 7.94531H2.25391C1.96243 7.94531 1.72656 7.70945 1.72656 7.41797C1.72656 7.12649 1.96243 6.89062 2.25391 6.89062ZM2.25391 9H8.58203C8.87351 9 9.10938 9.23586 9.10938 9.52734C9.10938 9.81882 8.87351 10.0547 8.58203 10.0547H2.25391C1.96243 10.0547 1.72656 9.81882 1.72656 9.52734C1.72656 9.23586 1.96243 9 2.25391 9Z" fill="#6F83BC" fill-opacity="0.62"/>
<path d="M3.83594 18H13.3281C13.6196 18 13.8555 17.7641 13.8555 17.4727V3.72656C13.8555 3.43508 13.6196 3.19922 13.3281 3.19922H11.7461V14.3086C11.7461 15.181 11.0364 15.8906 10.1641 15.8906H3.30859V17.4727C3.30859 17.7641 3.54446 18 3.83594 18Z" fill="#6F83BC" fill-opacity="0.62"/>
</svg>
