<svg width="11" height="12" viewBox="0 0 11 12" fill="none" xmlns="http://www.w3.org/2000/svg">
<g id="Frame" clip-path="url(#clip0_2_383)">
<g id="Group">
<path id="Vector" d="M5.5 0.313721C3.22575 0.313721 1.375 2.25843 1.375 4.64939C1.375 8.04666 5.11225 11.5544 5.27129 11.7017C5.33416 11.7604 5.41554 11.793 5.49991 11.793C5.58428 11.7931 5.66573 11.7608 5.72871 11.7022C5.88775 11.5544 9.625 8.04666 9.625 4.64939C9.625 2.25843 7.77425 0.313721 5.5 0.313721ZM5.5 7.00973C4.23638 7.00973 3.20833 5.93693 3.20833 4.6183C3.20833 3.29966 4.23638 2.22687 5.5 2.22687C6.76363 2.22687 7.79167 3.29966 7.79167 4.6183C7.79167 5.93693 6.76363 7.00973 5.5 7.00973Z" fill="#3A84FD"/>
</g>
</g>
<defs>
<clipPath id="clip0_2_383">
<rect width="11" height="11.4789" fill="white" transform="translate(0 0.313721)"/>
</clipPath>
</defs>
</svg>
