<svg width="20" height="10" viewBox="0 0 20 10" fill="none" xmlns="http://www.w3.org/2000/svg">
<path d="M3.135 6.99763C2.31083 6.99763 1.64125 7.67135 1.64125 8.49923C1.64059 8.8962 1.79754 9.27719 2.07762 9.55852C2.35771 9.83984 2.73802 9.99848 3.135 9.99958C3.53235 9.99881 3.91313 9.84029 4.19363 9.55886C4.47413 9.27744 4.63139 8.89614 4.63083 8.49881C4.63128 8.10147 4.474 7.72021 4.19353 7.43874C3.91307 7.15727 3.53235 6.99862 3.135 6.99763ZM3.135 9.27295C2.93638 9.27229 2.74615 9.19278 2.60614 9.05191C2.46612 8.91104 2.38778 8.72034 2.38833 8.52173C2.38822 8.32333 2.46673 8.13297 2.60668 7.99233C2.74662 7.85168 2.93659 7.77222 3.135 7.77134C3.33377 7.77167 3.52428 7.85089 3.66467 7.99159C3.80506 8.13229 3.88386 8.32297 3.88375 8.52173C3.88402 8.62025 3.86486 8.71785 3.82736 8.80895C3.78986 8.90006 3.73476 8.98287 3.66521 9.05265C3.59566 9.12243 3.51303 9.1778 3.42205 9.2156C3.33107 9.25341 3.23352 9.27289 3.135 9.27295ZM16.2779 6.99763C15.4525 6.99763 14.7833 7.67135 14.7833 8.49923C14.7826 8.89641 14.9396 9.27764 15.2199 9.55908C15.5001 9.84052 15.8807 9.99912 16.2779 10C17.1029 10 17.7738 9.32794 17.7738 8.49923C17.7742 8.10185 17.6169 7.72054 17.3365 7.43901C17.056 7.15747 16.6753 6.99873 16.2779 6.99763ZM16.2779 9.27295C16.0792 9.27229 15.8889 9.19281 15.7488 9.05196C15.6086 8.91112 15.5301 8.72042 15.5304 8.52173C15.5304 8.32322 15.6091 8.1328 15.7492 7.99215C15.8893 7.85151 16.0794 7.77211 16.2779 7.77134C16.6912 7.77134 17.0267 8.10841 17.0267 8.52173C17.0268 8.62022 17.0076 8.71777 16.9701 8.80882C16.9325 8.89988 16.8774 8.98265 16.8079 9.0524C16.7384 9.12216 16.6558 9.17754 16.5648 9.21538C16.4739 9.25322 16.3764 9.27278 16.2779 9.27295ZM19.5863 0H6.44208C6.33216 0.000331017 6.22686 0.0442554 6.14929 0.122134C6.07173 0.200013 6.02822 0.305483 6.02833 0.415399V4.18274H5.20042V1.86992C5.20053 1.81545 5.1899 1.76148 5.16914 1.71111C5.14838 1.66075 5.1179 1.61497 5.07943 1.57639C5.04097 1.53781 4.99528 1.50719 4.94497 1.48628C4.89466 1.46537 4.84073 1.45458 4.78625 1.45452H1.96625C1.47458 1.45452 1.03542 1.81784 0.956667 2.33782V2.31074L0.516668 4.80522L0.517501 4.81397C0.37251 4.83886 0.241009 4.91427 0.14629 5.02683C0.0515715 5.13939 -0.000251274 5.28183 9.16119e-07 5.42894L0.0137509 5.56227L9.16119e-07 5.55852L0.620834 8.36465H1.2675V8.33924C1.2675 7.33344 2.09042 6.5189 3.105 6.5189C4.11875 6.5189 4.94208 7.33344 4.94208 8.33924V8.36465H14.4113V8.33924C14.4113 7.33344 15.2346 6.5189 16.2475 6.5189C17.2621 6.5189 18.0854 7.33344 18.0854 8.33924L18.0837 8.36465H20V0.415399C20.0001 0.360958 19.9895 0.307028 19.9688 0.256688C19.948 0.206349 19.9176 0.160586 19.8792 0.122012C19.8407 0.083439 19.7951 0.0528106 19.7448 0.0318756C19.6946 0.0109407 19.6407 0.00010932 19.5863 0ZM3.75125 2.12949V4.18274H1.26792L1.57833 2.44073C1.60417 2.23241 1.78542 2.07866 1.96625 2.07866H3.75125V2.12949Z" fill="#F9F9F9"/>
</svg>
