<svg width="13" height="13" viewBox="0 0 13 13" fill="none" xmlns="http://www.w3.org/2000/svg">
<g id="Frame">
<g id="Group">
<path id="Vector" d="M2.69211 8.37729C2.69002 8.48975 2.72294 8.60008 2.78632 8.69301C2.84969 8.78594 2.94037 8.85687 3.04583 8.89599C3.15128 8.93512 3.26629 8.9405 3.37494 8.91139C3.48359 8.88228 3.5805 8.82012 3.65227 8.73351L6.48975 5.41903L9.32723 8.73556C9.3714 8.79615 9.42765 8.84693 9.49242 8.88469C9.5572 8.92244 9.62911 8.94637 9.7036 8.95494C9.77808 8.96351 9.85354 8.95655 9.9252 8.9345C9.99687 8.91244 10.0632 8.87577 10.12 8.8268C10.1767 8.77783 10.2228 8.71762 10.2551 8.64997C10.2874 8.58232 10.3054 8.50871 10.3079 8.43377C10.3103 8.35883 10.2972 8.28419 10.2694 8.21457C10.2415 8.14495 10.1996 8.08185 10.1461 8.02926L6.90534 4.23777C6.85441 4.17814 6.79115 4.13026 6.71994 4.09743C6.64872 4.0646 6.57124 4.0476 6.49282 4.0476C6.4144 4.0476 6.33691 4.0646 6.2657 4.09743C6.19448 4.13026 6.13123 4.17814 6.0803 4.23777L2.82928 8.02926C2.74374 8.12534 2.69512 8.24869 2.69211 8.37729Z" fill="#A3A3A3"/>
</g>
</g>
</svg>
